# xmcd CD database file
#
# Track frame offsets:
#	150
#	11825
#	27587
#	44450
#	63100
#	78275
#	88562
#	105512
#	118787
#	135550
#	147875
#	164775
#
# Disc length: 2437 seconds
#
# Revision: 1
# Processed by: cddbd v1.5.2PL0 Copyright (c) Steve Scherf et al.
# Submitted via: CDex 1.70beta2
#
DISCID=9f09830c
DTITLE=George and Lucky Riders - Roadmaster
DYEAR=1900
DGENRE=Country
TTITLE0=The Roadmaster
TTITLE1=I'm not the Jukebox
TTITLE2=If You wanna teach me
TTITLE3=Beercan Princess
TTITLE4=Burning desire
TTITLE5=Rock a Boogie Billy
TTITLE6=You've got her Eyes
TTITLE7=Too much and not enough
TTITLE8=Jim beam me home
TTITLE9=Two bit fiddler
TTITLE10=Pocket full of pain
TTITLE11=Welcome home
EXTD=
EXTT0=
EXTT1=
EXTT2=
EXTT3=
EXTT4=
EXTT5=
EXTT6=
EXTT7=
EXTT8=
EXTT9=
EXTT10=
EXTT11=
PLAYORDER=
